<?xml version="1.0" standalone="no"?>
<!DOCTYPE svg PUBLIC "-//W3C//DTD SVG 20010904//EN"
 "http://www.w3.org/TR/2001/REC-SVG-20010904/DTD/svg10.dtd">
<svg version="1.0" xmlns="http://www.w3.org/2000/svg"
 width="180.000000pt" height="180.000000pt" viewBox="0 0 180.000000 180.000000"
 preserveAspectRatio="xMidYMid meet">
<metadata>
Created by potrace 1.11, written by Peter Selinger 2001-2013
</metadata>
<g transform="translate(0.000000,180.000000) scale(0.100000,-0.100000)"
fill="#000000" stroke="none">
<path d="M0 900 l0 -900 900 0 900 0 0 900 0 900 -900 0 -900 0 0 -900z m720
330 l0 -80 -54 0 -53 0 51 -210 c28 -115 53 -210 56 -210 3 0 34 109 69 243
35 133 70 263 78 290 l14 47 74 0 c73 0 75 -1 82 -27 3 -16 37 -147 73 -293
37 -146 70 -258 73 -250 8 20 107 393 107 403 0 4 -22 7 -50 7 l-50 0 0 80 0
80 165 0 165 0 0 -80 0 -80 -49 0 -48 0 -43 -162 c-23 -90 -63 -244 -89 -343
l-47 -180 -119 0 -119 0 -50 202 c-28 111 -53 204 -56 207 -3 3 -28 -79 -54
-182 -27 -103 -52 -197 -57 -209 -8 -22 -13 -23 -123 -23 l-115 0 -10 38 c-6
20 -45 175 -87 345 l-76 307 -49 0 -49 0 0 80 0 80 220 0 220 0 0 -80z"/>
</g>
</svg>
